<svg width="1024" height="1056" xmlns="http://www.w3.org/2000/svg" xmlns:xlink="http://www.w3.org/1999/xlink" xml:space="preserve" overflow="hidden"><g transform="translate(-1413 -169)"><path d="M1855.19 639.616C1834.36 661.151 1800.02 661.724 1778.49 640.895L1673.22 539.08C1651.69 518.251 1651.11 483.909 1671.94 462.374L1671.94 462.374C1692.77 440.84 1727.11 440.267 1748.65 461.096L1853.91 562.911C1875.45 583.74 1876.02 618.082 1855.19 639.616Z" fill="#CC0000" fill-rule="evenodd"/><path d="M1639.88 431.367C1619.06 452.901 1584.71 453.474 1563.18 432.645L1563.18 432.645C1541.64 411.816 1541.07 377.474 1561.9 355.939L1561.9 355.939C1582.73 334.405 1617.07 333.832 1638.61 354.661L1638.61 354.661C1660.14 375.49 1660.71 409.832 1639.88 431.367Z" fill="#C00000" fill-rule="evenodd"/><path d="M2205.73 400.991C2370.67 557.508 2385.65 812.597 2239.59 977.346L2177.71 922.181 2154.32 946.994C2096.88 1001.72 2020.49 1033.43 1939.16 1035.47 1850.09 1037.71 1762.69 1004.18 1696.47 942.356 1720.03 917.069 1743.58 891.782 1767.13 866.495 1812.65 909.029 1872.38 932.56 1933.21 931.917 1997.94 931.234 2058.1 903.255 2098.86 854.871L2176.25 920.88 2165.75 911.527C2276.25 786.675 2263.83 592.529 2137.69 472.783 2027.18 367.877 1864.33 353.237 1745.85 429.853L1742.67 432.149 1739.24 430.417C1711.72 419.787 1679.31 425.871 1657.51 448.411 1635.71 470.951 1630.7 503.545 1642.25 530.697L1646.82 539.052 1631.24 568.749C1586.81 679.17 1609.56 812.638 1699.31 907.95L1627.02 975.461C1500.15 840.466 1476.76 646.221 1556.61 494.807L1574.66 464.392 1602.05 469.251C1621.43 468.928 1640.67 461.215 1655.21 446.188 1677.01 423.648 1682.01 391.054 1670.47 363.903L1669.89 362.844 1691.38 347.265C1847.49 245.788 2061.28 263.91 2205.73 400.991Z" fill="#5383EC" fill-rule="evenodd"/><path d="M2381.79 169.753C2395.67 169.521 2409.64 174.585 2420.41 185 2441.94 205.828 2442.52 240.17 2421.69 261.705L2032.42 664.166 2022.15 680.204C2016.44 694.994 2017.46 711.754 2025.15 725.8L2033.11 736.233 2278.12 973.207C2299.65 994.035 2300.23 1028.38 2279.4 1049.91 2258.57 1071.45 2224.23 1072.02 2202.69 1051.19L1882.33 741.329 1882.32 741.327C1866.17 725.705 1861.81 702.482 1869.43 682.762L1869.43 682.762 1869.43 682.761C1871.97 676.188 1875.84 670.004 1881.04 664.62L1881.05 664.619 2343.7 186.278C2354.12 175.511 2367.91 169.984 2381.79 169.753Z" fill="#55A559" fill-rule="evenodd"/><path d="M1861.41 762.95C1882.94 783.779 1883.51 818.121 1862.69 839.656L1506.42 1208C1485.59 1229.53 1451.25 1230.1 1429.72 1209.27L1429.72 1209.27C1408.18 1188.45 1407.61 1154.1 1428.44 1132.57L1784.7 764.229C1805.53 742.694 1839.87 742.122 1861.41 762.95Z" fill="#F1BF41" fill-rule="evenodd"/></g></svg>